<?xml version="1.0" encoding="UTF-8"?>
<!DOCTYPE svg PUBLIC "-//W3C//DTD SVG 1.1//EN" "http://www.w3.org/Graphics/SVG/1.1/DTD/svg11.dtd">
<svg xmlns="http://www.w3.org/2000/svg" version="1.1" width="500px" height="500px" style="shape-rendering:geometricPrecision; text-rendering:geometricPrecision; image-rendering:optimizeQuality; fill-rule:evenodd; clip-rule:evenodd" xmlns:xlink="http://www.w3.org/1999/xlink">
<g><path style="opacity:1" fill="#000000" d="M -0.5,-0.5 C 166.167,-0.5 332.833,-0.5 499.5,-0.5C 499.5,166.167 499.5,332.833 499.5,499.5C 332.833,499.5 166.167,499.5 -0.5,499.5C -0.5,332.833 -0.5,166.167 -0.5,-0.5 Z"/></g>
<g><path style="opacity:1" fill="#f9f9f9" d="M 307.5,137.5 C 317.218,135.684 325.384,138.351 332,145.5C 337.555,155.853 336.055,165.019 327.5,173C 321.484,175.827 316.817,174.327 313.5,168.5C 318.167,164.506 320.001,159.506 319,153.5C 316.173,150.335 312.673,149.169 308.5,150C 300.845,154.999 295.345,161.832 292,170.5C 285.049,187.257 283.049,204.59 286,222.5C 287.602,229.549 291.102,235.382 296.5,240C 306.808,244.6 314.975,242.1 321,232.5C 323.922,226.479 325.755,220.146 326.5,213.5C 321.633,215.121 316.633,216.121 311.5,216.5C 301.525,216.361 297.025,211.361 298,201.5C 298.388,200.572 299.055,199.905 300,199.5C 302.714,200.683 305.547,201.349 308.5,201.5C 317.107,199.826 325.774,199.326 334.5,200C 340.846,202.357 342.846,206.69 340.5,213C 338.893,212.981 337.226,212.815 335.5,212.5C 335.321,227.555 329.654,240.055 318.5,250C 309.731,256.076 300.065,258.076 289.5,256C 274.213,250.635 265.713,239.801 264,223.5C 263.831,216.144 263.331,208.811 262.5,201.5C 258.892,202.593 255.225,202.76 251.5,202C 246.053,200.11 240.72,197.943 235.5,195.5C 231.559,208.599 228.559,221.932 226.5,235.5C 232.964,237.117 239.297,236.784 245.5,234.5C 248.278,240.149 246.611,244.315 240.5,247C 234.772,247.32 229.105,246.82 223.5,245.5C 220.749,262.421 216.916,279.088 212,295.5C 206.709,299.415 200.876,300.415 194.5,298.5C 194.167,297.333 193.833,296.167 193.5,295C 201.36,260.197 209.027,225.363 216.5,190.5C 201.208,193.998 194.708,203.665 197,219.5C 198.401,221.146 198.568,222.813 197.5,224.5C 189.753,226.544 184.253,223.877 181,216.5C 178.724,200.435 185.224,189.602 200.5,184C 204.42,182.687 208.42,181.687 212.5,181C 225.219,180.376 237.886,180.876 250.5,182.5C 255.899,182.554 261.233,182.054 266.5,181C 272.002,167.678 280.002,156.011 290.5,146C 295.731,142.102 301.397,139.269 307.5,137.5 Z"/></g>
<g><path style="opacity:1" fill="#d5d5d5" d="M 337.5,275.5 C 340.898,275.18 344.232,275.513 347.5,276.5C 347.291,277.086 346.957,277.586 346.5,278C 318.675,280.936 291.008,284.603 263.5,289C 269.996,286.709 276.663,285.043 283.5,284C 301.607,280.915 319.607,278.082 337.5,275.5 Z"/></g>
<g><path style="opacity:1" fill="#cbcbcb" d="M 284.5,279.5 C 283.833,279.5 283.5,279.167 283.5,278.5C 304.724,276.324 325.89,273.657 347,270.5C 347.833,270.833 348.667,271.167 349.5,271.5C 328.05,275.797 306.383,278.463 284.5,279.5 Z"/></g>
<g><path style="opacity:1" fill="#8a8a8a" d="M 283.5,278.5 C 283.5,279.167 283.833,279.5 284.5,279.5C 273.723,282.153 262.723,283.986 251.5,285C 262.095,282.381 272.761,280.214 283.5,278.5 Z"/></g>
</svg>
